Patient4_TMGait_0pt3_02_left_26_EMG.mot
version=1
nRows=20
nColumns=33
inDegrees=no
endheader
time	1LAddLong	2LGlutMax	3LGlutMed	4LIliopsoas	5LSemiMemb	6LBicFemLong	7LRecFem	8LVastMed	9LVastLat	10LGasMed	11LTibAnt	12lTibPost	13LPeroneusLong	14LSol	15LExtDigLong	16LFlexDigLong	17RAddLong	18RGlutMax	19RGlutMed	20RIliopsoas	21RSemiMemb	22RBicFemLong	23RRecFem	24RVastMed	25RVastLat	26RGasMed	27RTibAnt	28RTibPost	29RPeroneusLong	30RSol	31RExtDigLong	32RFlexDigLong
50.94	-0.058746	0.60288	0.003204	-0.005951	-0.006409	-0.077057	-0.039825	-0.015411	0.015869	0.07019	0.080109	0.019684	-0.20218	-0.12878	0.16403	-0.018616	-0.009155	-0.15152	-0.1445	0.055237	-0.035248	0.14557	0.056763	0.19287	-0.33554	0.061035	0.014038	0.012054	-0.18417	-1.1467	0.003204	-0.022278
50.941	-0.061798	0.62454	0.005646	-0.021362	0.001068	-0.075226	-0.050507	-0.007172	0.014191	0.063171	0.12421	0.023041	-0.18494	-0.045929	0.159	-0.020905	-0.004578	-0.12497	-0.103	0.00473	0.06485	0.074158	0.26032	0.22263	-0.39978	0.035248	-0.028229	-0.20142	0.14084	-1.2759	0.013733	-0.018768
50.942	0.012054	0.63583	0.010529	-0.003357	-0.007629	-0.060425	-0.050659	-0.003204	0.016937	0.019379	0.177	0.019836	-0.081177	0.000305	0.52643	-0.020142	0.007477	-0.09903	0.13763	-0.070801	0.016327	0.027924	0.34317	0.12604	-0.13397	-0.01709	-0.062866	-0.20737	0.061951	-0.89081	0.001678	-0.020752
50.943	-0.012665	0.62958	-0.002899	-0.00824	0.001068	-0.052338	-0.05249	-0.002289	0.010986	-0.040131	0.067749	0.013428	0.069885	-0.058289	-0.37552	-0.020599	-0.001373	-0.053253	0.31784	-0.11871	0.005951	0.044098	0.23697	0.003052	-0.064545	-0.095673	-0.046844	-1.2854	-0.004425	-0.47104	0.001373	-0.018311
50.944	0.003204	0.62958	-0.021057	0.007172	0.001068	-0.063782	-0.053406	-0.009766	0.01709	-0.029755	-0.051422	0.017242	0.098724	-0.13184	-0.23163	-0.020599	-0.010071	-0.10819	0.35873	-0.16602	0.011139	0.071411	0.036926	-0.036163	-0.1297	-0.10742	-0.088501	0.57617	-0.047302	-0.26245	0.001831	-0.023956
50.945	0.005798	0.60715	-0.067139	0.01709	0.005341	-0.071411	-0.03479	0.000153	0.026093	0.021057	-0.05661	0.010834	-0.027313	-0.077972	-0.21332	-0.056305	-0.013275	-0.085144	0.48202	-0.081482	0.009918	0.05722	-0.16907	-0.023041	-0.1149	-0.075989	-0.10193	0.21393	-0.17563	-0.63004	0.002136	-0.037231
50.946	0.010071	0.61066	0.009155	0.03952	0.00061	-0.078125	-0.042725	-0.00946	0.021667	0.03418	-0.12421	0.014191	-0.097504	0.009613	-0.2446	-0.055389	0.00946	-0.016022	0.38559	0.024567	-0.013275	0.022278	-0.18051	-0.1741	-0.11063	-0.047607	-0.045319	0.2034	0.058136	0.22537	0.00061	-0.024567
50.947	0.006866	0.60364	0.098267	0.039063	-0.005646	-0.074158	-0.027618	0.002899	-0.000916	0.04837	-0.082245	0.019989	-0.09079	-0.009766	-0.28549	-0.045929	0.012512	-0.052795	0.20737	0.10162	-0.024872	0.02243	-0.32745	-0.12238	-0.15732	-0.036011	-0.026398	0.33783	0.1973	0.80231	0.004883	-0.014343
50.948	0.006866	0.58273	0.045013	0.016632	-0.005798	-0.052948	-0.046234	0.00351	-0.006714	0.046234	-0.050201	0.01709	-0.10986	-0.057068	0.19501	-0.045471	0.055542	0.012665	0.19989	0.10635	-0.053253	-0.008698	-0.087585	-0.023956	-0.31464	-0.046997	-0.012817	0.24857	0.019531	1.095	0.000153	-0.013123
50.949	0.005798	0.55252	0.040741	0.001221	-0.000305	-0.06485	-0.079956	0.009003	0.003357	0.050049	0.13046	0.024109	-0.11353	-0.092621	0.1181	-0.049133	0.049133	0.10407	0.03006	0.12482	-0.046692	-0.015259	-0.095062	0.18341	-0.074921	-0.07309	0	-0.066223	-0.023041	0.99991	0.001526	-0.020142
50.95	0.007782	0.54642	0.052185	-0.006409	0.000305	-0.079193	-0.061035	0.015717	-0.011597	0.02182	0.34164	0.011749	-0.072174	0.005951	0.39993	-0.032043	0.01236	0.017548	-0.39688	0.097809	-0.063629	-0.001831	-0.26749	0.25635	0.15259	-0.055847	-0.010071	0.20721	0.011444	1.259	0.000305	0
50.951	-0.00061	0.55695	0.065613	-0.008392	-0.005341	-0.11765	-0.066071	0.009155	-0.00824	-0.024109	0.25345	0.015717	0.02243	0.10376	0.52475	-0.019226	-0.003204	-0.065155	-0.57632	0.10956	-0.042877	-0.002289	-0.20096	0.20859	0.12817	-0.025024	-0.000458	0.14786	0.10056	1.543	0.001068	-0.015106
50.952	0.005493	0.5307	0.05127	0.013275	0.000763	-0.12955	-0.053253	0.008545	-0.011902	-0.026245	0.1152	0.001984	0.030365	0.17212	-0.061188	-0.020905	0.02121	-0.061646	-0.69458	0.12848	-0.029755	0.008545	0.11856	0.06424	0.028687	-0.021515	0.00412	0.070648	0.076599	1.2355	0.001831	-0.009003
50.953	0.011292	0.52628	0.069122	0.034332	0.00473	-0.082092	-0.028076	0.002747	-0.022888	-0.040588	0.076294	0.025177	0.066681	0.12604	0.14481	-0.026398	0.033875	-0.090179	-0.4689	0.098114	-0.006256	-0.00412	0.20905	0.043793	0.031128	0.017395	-0.007324	0.000305	0.081635	0.93903	0.004883	-0.001831
50.954	0.00824	0.49332	0.074158	0.00885	0.003662	-0.082855	-0.027618	0.008545	-0.017395	-0.022583	-0.085602	0.00412	-0.000305	0.039368	0.062408	-0.019836	0.037994	-0.19791	-0.16144	0.00885	-0.10498	-0.031128	0.20187	0.048828	0.009918	0.036316	-0.01297	-0.14984	0.20554	0.62332	0.010223	-0.006714
50.955	0.009308	0.45563	0.068817	0.008545	0.001831	-0.071716	-0.032806	0.014343	-0.036621	0.003204	-0.15198	0.014038	-0.021973	0.032654	-0.37643	-0.027924	0.044098	-0.25604	0.26154	-0.029297	-0.19211	-0.023041	0.14603	-0.015564	0.06424	0.033264	0.012512	-0.066528	-0.085602	0.36423	0.000763	-0.006409
50.956	0.006866	0.39841	0.063477	0.007172	0.004272	-0.035095	-0.016937	0.013428	-0.045929	0.017395	-0.094452	0.023499	-0.050049	-0.011749	-0.42633	-0.028839	0.023346	-0.30777	0.43747	-0.037079	-0.058441	0.009766	0.044403	-0.059509	0.054474	0.026398	0.028076	0.018005	-0.22079	0.32135	-0.003357	-0.004578
50.957	0.012817	0.36163	0.057068	0.007172	-0.000153	-0.02121	-0.001984	0.016632	-0.035095	0.014496	-0.049286	0.006409	-0.031433	-0.061188	0.032501	-0.030518	0.012817	-0.41519	-0.051575	-0.021973	0.13809	-0.020752	0.14191	0.021515	0.002289	0.030212	-0.000458	0.12421	-0.24628	0.088654	0.000153	0.005341
50.958	0.007019	0.35248	0.054626	0.023804	0.003357	-0.024872	-0.004578	0.016479	-0.03952	0.015717	0.011597	0.006714	-0.025787	-0.088654	0.19348	-0.023499	0.011292	-0.49225	0.061798	0.015564	0.14648	0.040283	0.17014	0.071869	-0.099792	0.023956	-0.005798	-0.17487	-0.046539	-0.07019	0.002136	0.005341
50.959	0.006866	0.30807	0.062714	0.000458	0.00061	-0.042725	-0.022125	0.027771	-0.029297	0.027313	0.034332	0.011139	-0.056152	-0.11322	0.15671	-0.013733	0.02182	-0.55008	0.03952	-0.007629	0.095367	0.093079	0.29923	0.11429	-0.10666	-0.006409	0.016174	-0.098877	-0.019073	-0.33402	-0.000458	-0.000153
